#!OML:ASF Y:\EmotionMaleHayes\Project 1\Capture day 1\Session 1\Male1.ASF
:FULLY-SPECIFIED
:DEGREES
1169
root 29.8436 17.2859 -1.8245 990.884 88.5053 983.334
lowerback 9.7589 0.525721 3.55696
upperback 8.36838 1.31328 2.63828
thorax 3.26985 0.926176 0.669456
lowerneck -25.0146 2.65535 3.3634
upperneck 24.1014 2.83608 -0.980691
head 12.1644 1.48298 -0.423583
rclavicle -2.0276e-014 -2.78299e-014
rhumerus 51.6363 12.9396 -30.2622
rradius 42.0682
rwrist -4.18789
rhand -0.326484 -31.89
rfingers 7.12502
rthumb 25.2776 -60.2353
lclavicle -2.0276e-014 -2.78299e-014
lhumerus 45.5087 -15.4194 26.2666
lradius 41.1082
lwrist 8.81436
lhand -13.0089 -22.012
lfingers 7.12502
lthumb 13.0846 7.55757
rfemur 6.69039 -1.14535 6.78177
rtibia 4.85606
rfoot -11.087 -3.84539
rtoes -19.7043
lfemur -18.2484 -0.912658 -7.53819
ltibia 20.8435
lfoot -8.03952 6.87679
ltoes -11.4049
1170
root 29.9316 17.3056 -1.90114 1003.35 88.1167 995.971
lowerback 9.81781 0.633557 3.79375
upperback 8.38535 1.47564 2.69192
thorax 3.26422 1.0179 0.581726
lowerneck -24.7224 2.67237 3.40264
upperneck 24.0468 2.87272 -1.02548
head 12.0894 1.49937 -0.443528
rclavicle -1.19271e-014 -2.3059e-014
rhumerus 51.4618 13.0506 -30.2543
rradius 41.9441
rwrist -4.03528
rhand -0.284885 -31.8752
rfingers 7.12502
rthumb 25.3175 -60.2149
lclavicle -1.19271e-014 -2.3059e-014
lhumerus 45.5051 -15.5819 26.3367
lradius 41.1098
lwrist 8.73154
lhand -12.8817 -21.9147
lfingers 7.12502
lthumb 13.2072 7.64698
rfemur 7.06853 -0.964521 6.97617
rtibia 4.76564
rfoot -10.5423 -3.82087
rtoes -20.1629
lfemur -17.5556 -0.665253 -7.44224
ltibia 20.7757
lfoot -8.40236 6.89834
ltoes -10.0185
1171
root 30.0214 17.325 -1.97355 1016.68 87.944 1009.46
lowerback 9.90601 0.810377 3.58879
upperback 8.36182 1.69781 2.70823
thorax 3.18745 1.11646 0.694967
lowerneck -24.684 2.59139 3.29362
upperneck 24.2325 2.83315 -1.09997
head 12.1528 1.46413 -0.460005
rclavicle 3.18055e-015 -6.36111e-015
rhumerus 51.2492 13.2136 -30.2056
rradius 41.849
rwrist -3.76284
rhand -0.129049 -31.914
rfingers 7.12502
rthumb 25.4668 -60.2325
lclavicle 3.18055e-015 -6.36111e-015
lhumerus 45.4723 -15.8316 26.4321
lradius 41.1129
lwrist 8.62222
lhand -12.8038 -21.7843
lfingers 7.12502
lthumb 13.2823 7.7725
rfemur 7.41338 -0.764431 6.76944
rtibia 4.71063
rfoot -9.78076 -3.8862
rtoes -18.2542
lfemur -16.8888 -0.463433 -7.6836
ltibia 20.7704
lfoot -8.98314 7.01581
ltoes -7.98904
1172
root 30.1072 17.3443 -2.04362 1027.17 87.8366 1020.06
lowerback 10.0209 0.93971 3.27464
upperback 8.27851 1.84838 2.64266
thorax 3.02899 1.17336 0.785668
lowerneck -24.7476 2.57277 3.3108
upperneck 24.5736 2.82981 -1.15961
head 12.3004 1.45964 -0.483836
rclavicle 1.19271e-015 -2.14687e-014
rhumerus 51.0786 13.4336 -30.2509
rradius 41.7422
rwrist -3.51418
rhand 0.031429 -31.9622
rfingers 7.12502
rthumb 25.6205 -60.2586
lclavicle 1.19271e-015 -2.14687e-014
lhumerus 45.3776 -16.1155 26.3374
lradius 41.2069
lwrist 8.68127
lhand -12.5702 -21.6092
lfingers 7.12502
lthumb 13.5074 7.93273
rfemur 7.66094 -0.854691 6.3582
rtibia 4.75886
rfoot -8.924 -3.89602
rtoes -13.339
lfemur -16.2806 -0.44355 -8.08142
ltibia 20.7182
lfoot -9.45717 7.18776
ltoes -6.98515
1173
root 30.1822 17.3629 -2.11459 1031.76 87.5957 1024.71
lowerback 10.1224 1.00964 3.18139
upperback 8.21376 1.93624 2.57738
thorax 2.90454 1.21079 0.758607
lowerneck -24.8718 2.57523 3.54602
upperneck 24.9287 2.8036 -1.3368
head 12.4717 1.44942 -0.592494
rclavicle 3.18055e-015 3.18055e-015
rhumerus 50.9539 13.541 -30.5503
rradius 41.5869
rwrist -3.14079
rhand 0.171538 -31.8275
rfingers 7.12502
rthumb 25.7547 -60.1046
lclavicle 3.18055e-015 3.18055e-015
lhumerus 45.3473 -16.3612 25.9541
lradius 41.3661
lwrist 8.91727
lhand -12.2888 -21.3334
lfingers 7.12502
lthumb 13.7787 8.19031
rfemur 7.82831 -0.980658 6.18714
rtibia 4.81933
rfoot -8.21136 -3.96397
rtoes -9.38788
lfemur -15.7341 -0.490349 -8.29782
ltibia 20.574
lfoot -9.72308 7.37325
ltoes -6.7733
1174
root 30.2702 17.3831 -2.19128 1040.03 87.0295 1033.09
lowerback 10.0149 1.24144 3.17938
upperback 8.33057 2.23627 2.56898
thorax 3.09072 1.36455 0.736946
lowerneck -24.8921 2.51738 3.29187
upperneck 24.9579 2.77301 -1.17369
head 12.4791 1.43411 -0.493163
rclavicle -5.96354e-015 7.15625e-015
rhumerus 50.899 13.4764 -30.4745
rradius 41.4864
rwrist -3.00198
rhand 0.284077 -31.7688
rfingers 7.12502
rthumb 25.8624 -60.0301
lclavicle -5.96354e-015 7.15625e-015
lhumerus 45.5173 -16.4899 25.6795
lradius 41.4966
lwrist 9.08519
lhand -11.9725 -21.0004
lfingers 7.12502
lthumb 14.0835 8.50241
rfemur 7.87851 -0.999044 6.02666
rtibia 4.97005
rfoot -7.47099 -3.76138
rtoes -8.5795
lfemur -14.8383 -0.295226 -8.43293
ltibia 20.1452
lfoot -10.0039 7.6988
ltoes -6.53685
1175
root 30.3563 17.401 -2.25507 1046.42 86.5058 1039.54
lowerback 9.8856 1.45418 2.93467
upperback 8.38831 2.49086 2.54689
thorax 3.21509 1.48149 0.839443
lowerneck -24.9114 2.39949 2.83659
upperneck 24.964 2.63319 -0.672126
head 12.4659 1.39821 -0.250711
rclavicle 2.66371e-014 4.53229e-014
rhumerus 50.8603 13.5401 -30.3432
rradius 41.4876
rwrist -3.02686
rhand 0.343165 -31.8724
rfingers 7.12502
rthumb 25.919 -60.1255
lclavicle 2.66371e-014 4.53229e-014
lhumerus 45.5739 -16.5332 25.4722
lradius 41.5824
lwrist 8.96444
lhand -11.4456 -21.025
lfingers 7.12502
lthumb 14.5912 8.44171
rfemur 7.82743 -0.749932 5.89143
rtibia 5.09668
rfoot -6.78437 -3.84237
rtoes -8.77224
lfemur -14.0727 0.0976994 -8.56379
ltibia 19.7846
lfoot -10.2262 7.87099
ltoes -6.3733
1176
root 30.4333 17.4166 -2.31411 1052.33 86.1876 1045.51
lowerback 9.88529 1.63046 2.51554
upperback 8.38215 2.69143 2.44043
thorax 3.19456 1.56261 0.948355
lowerneck -24.841 2.48919 2.99312
upperneck 25.0401 2.75807 -0.843975
head 12.4906 1.44613 -0.320204
rclavicle 1.07344e-014 4.05521e-014
rhumerus 50.6206 13.5641 -30.505
rradius 41.5509
rwrist -2.89346
rhand 0.287936 -31.7902
rfingers 7.12502
rthumb 25.8661 -60.051
lclavicle 1.07344e-014 4.05521e-014
lhumerus 45.6746 -16.4995 25.3191
lradius 41.5633
lwrist 8.58802
lhand -10.6984 -21.6174
lfingers 7.12502
lthumb 15.311 7.79579
rfemur 7.84665 -0.405317 5.57526
rtibia 5.3394
rfoot -6.43763 -4.09411
rtoes -6.94199
lfemur -13.4386 0.402951 -8.9087
ltibia 19.4799
lfoot -10.3999 8.01364
ltoes -6.28212
1177
root 30.5117 17.4278 -2.37921 1057.73 86.0537 1050.85
lowerback 9.73018 1.7183 2.08741
upperback 8.35844 2.7673 2.27995
thorax 3.24078 1.58142 1.02052
lowerneck -24.7454 2.6632 3.43515
upperneck 25.0431 3.00382 -1.39547
head 12.497 1.5215 -0.561379
rclavicle -2.06736e-014 -2.22639e-014
rhumerus 50.4938 13.5931 -30.6597
rradius 41.5494
rwrist -2.83042
rhand 0.210022 -31.5555
rfingers 7.12502
rthumb 25.7915 -59.8272
lclavicle -2.06736e-014 -2.22639e-014
lhumerus 45.7352 -16.5021 24.9986
lradius 41.5803
lwrist 8.49907
lhand -10.1891 -22.04
lfingers 7.12502
lthumb 15.8015 7.33509
rfemur 7.95911 -0.515378 4.98032
rtibia 5.24693
rfoot -5.9175 -4.18721
rtoes -2.90617
lfemur -12.9727 0.481425 -9.51104
ltibia 19.1886
lfoot -10.5867 8.14379
ltoes -6.15278
1178
root 30.5922 17.4383 -2.43958 1059.81 85.8574 1052.9
lowerback 9.54926 1.77083 1.80109
upperback 8.35427 2.80803 2.21361
thorax 3.32427 1.58806 1.11583
lowerneck -24.5856 2.67413 3.331
upperneck 24.902 3.04182 -1.32744
head 12.4076 1.53778 -0.513404
rclavicle -7.15625e-015 -3.18055e-014
rhumerus 50.5332 13.6466 -30.716
rradius 41.4563
rwrist -2.89576
rhand 0.208789 -31.4319
rfingers 7.12502
rthumb 25.7903 -59.7038
lclavicle -7.15625e-015 -3.18055e-014
lhumerus 45.735 -16.5303 24.5144
lradius 41.7153
lwrist 8.76377
lhand -10.0285 -22.0291
lfingers 7.12502
lthumb 15.9562 7.33365
rfemur 7.91274 -0.676443 4.64163
rtibia 5.51576
rfoot -5.63082 -4.21214
rtoes 0.134735
lfemur -12.4731 0.475227 -9.8407
ltibia 18.844
lfoot -10.7566 8.27278
ltoes -6.62193
1179
root 30.6638 17.4516 -2.49166 1059.7 85.5255 1052.73
lowerback 9.4623 1.86834 1.6381
upperback 8.32928 2.92028 2.19959
thorax 3.33723 1.6348 1.18758
lowerneck -24.6778 2.65302 3.44429
upperneck 24.8291 3.06341 -1.67366
head 12.4057 1.50815 -0.659898
rclavicle 1.98785e-015 -6.36111e-015
rhumerus 50.4494 13.6746 -30.7655
rradius 41.472
rwrist -2.97736
rhand 0.124787 -31.3772
rfingers 7.12502
rthumb 25.7099 -59.6607
lclavicle 1.98785e-015 -6.36111e-015
lhumerus 45.7745 -16.4549 24.1506
lradius 41.8407
lwrist 8.86231
lhand -9.87376 -21.9933
lfingers 7.12502
lthumb 16.1052 7.35745
rfemur 7.8352 -0.479815 4.68498
rtibia 5.6166
rfoot -5.3559 -4.48544
rtoes 0.168985
lfemur -12.0474 0.588704 -9.83236
ltibia 18.5409
lfoot -10.9391 8.38969
ltoes -7.3158
1180
root 30.736 17.4655 -2.54477 1060.94 85.2681 1053.8
lowerback 9.32886 1.94151 1.45999
upperback 8.20814 2.99377 2.07023
thorax 3.27879 1.66086 1.14926
lowerneck -24.6456 2.66818 3.5714
upperneck 24.7693 3.08402 -1.8389
head 12.3819 1.50641 -0.74074
rclavicle -1.82882e-014 2.3059e-014
rhumerus 50.2574 13.7598 -30.9073
rradius 41.6069
rwrist -3.02457
rhand 0.164578 -31.4406
rfingers 7.12502
rthumb 25.748 -59.7186
lclavicle -1.82882e-014 2.3059e-014
lhumerus 45.7339 -16.4515 23.8856
lradius 41.9229
lwrist 8.84915
lhand -9.89754 -22.0009
lfingers 7.12502
lthumb 16.0823 7.35175
rfemur 7.65441 -0.335877 4.54661
rtibia 5.63595
rfoot -4.59746 -5.00491
rtoes 0.935515
lfemur -11.8402 0.748039 -10.0183
ltibia 18.43
lfoot -11.1691 8.44407
ltoes -7.23931
1181
root 30.8158 17.4768 -2.59841 1063.56 85.1032 1056.3
lowerback 8.92006 1.97873 1.0082
upperback 8.265 3.00276 2.00817
thorax 3.54335 1.64382 1.35639
lowerneck -24.5152 2.77376 3.55378
upperneck 24.5641 3.26895 -1.94497
head 12.2831 1.57099 -0.746957
rclavicle -1.74931e-014 -6.36111e-015
rhumerus 50.4252 13.7919 -30.7069
rradius 41.6812
rwrist -3.28163
rhand 0.362914 -31.6141
rfingers 7.12502
rthumb 25.9379 -59.8645
lclavicle -1.74931e-014 -6.36111e-015
lhumerus 45.5661 -16.2214 23.9196
lradius 41.952
lwrist 8.76436
lhand -10.0947 -22.1343
lfingers 7.12502
lthumb 15.8925 7.23354
rfemur 7.60741 -0.325877 4.15105
rtibia 5.66211
rfoot -3.99865 -5.31978
rtoes 3.67294
lfemur -11.4813 0.761916 -10.4372
ltibia 18.1991
lfoot -11.4252 8.55936
ltoes -6.96302
1182
root 30.881 17.4903 -2.64512 1065.15 85.1485 1057.86
lowerback 8.82275 1.96406 0.56145
upperback 8.28257 2.95599 1.93031
thorax 3.59813 1.60025 1.53222
lowerneck -24.5829 2.89468 3.67599
upperneck 24.5538 3.43086 -2.08755
head 12.303 1.6333 -0.792202
rclavicle -3.37934e-015 -9.54166e-015
rhumerus 50.4627 13.7889 -30.6444
rradius 41.7339
rwrist -3.55224
rhand 0.456961 -31.7507
rfingers 7.12502
rthumb 26.028 -59.9879
lclavicle -3.37934e-015 -9.54166e-015
lhumerus 45.4794 -15.9792 23.865
lradius 41.9887
lwrist 8.64325
lhand -10.3394 -22.3646
lfingers 7.12502
lthumb 15.6568 7.02188
rfemur 7.70957 -0.365481 3.84552
rtibia 5.7193
rfoot -3.6604 -5.78632
rtoes 6.4667
lfemur -11.1386 0.63917 -10.8243
ltibia 17.9371
lfoot -11.5956 8.58693
ltoes -6.67794
1183
root 30.9491 17.5032 -2.69419 1065.06 84.9933 1057.7
lowerback 8.73539 2.00226 0.420758
upperback 8.25313 2.99506 1.84025
thorax 3.61181 1.61348 1.51788
lowerneck -24.7562 2.9526 3.74076
upperneck 24.6573 3.48996 -2.11009
head 12.3814 1.66091 -0.799277
rclavicle 2.20651e-014 1.11319e-014
rhumerus 50.3427 13.7422 -30.7743
rradius 41.799
rwrist -3.58805
rhand 0.466965 -31.847
rfingers 7.12502
rthumb 26.0376 -60.0827
lclavicle 2.20651e-014 1.11319e-014
lhumerus 45.4984 -15.8195 23.7153
lradius 42.0084
lwrist 8.73364
lhand -10.6154 -22.4555
lfingers 7.12502
lthumb 15.3909 6.95164
rfemur 7.69344 -0.439063 3.74882
rtibia 5.82276
rfoot -3.18569 -6.06229
rtoes 7.01173
lfemur -10.8016 0.566107 -10.9603
ltibia 17.6746
lfoot -11.7755 8.67681
ltoes -5.85583
